# xmcd
#
# Track frame offsets:
#	150
#	15415
#	30552
#	45655
#	66977
#	81065
#	100970
#	115262
#	138717
#	157057
#	166300
#	183977
#	216217
#
# Disc length: 3174 seconds
#
# Revision: 3
# Processed by: cddbd v1.5.1PL0 Copyright (c) Steve Scherf et al.
# Submitted via: MusicWizard 7.0.2
#
DISCID=af0c640d
DTITLE=Hank Williams Jr. - Almeria Club
DYEAR=2002
DGENRE=Country
TTITLE0=Last Pork Chop
TTITLE1=Go Girl Go
TTITLE2=The "F" Word
TTITLE3=If The Good Lord's Willin' (And The Creeks Don't Rise)
TTITLE4=X-Treme Country
TTITLE5=Last Pork Chop (Acoustic)
TTITLE6=Big Top Women
TTITLE7=The Cheatin' Hotel
TTITLE8=Outdoor Lovin' Man
TTITLE9=Almeria Jam
TTITLE10=Tee Tot Song
TTITLE11=Cross On The Highway
TTITLE12=America Will Survive (Studio Version)
EXTD=Produced by Chuck Howard for Diamond Struck Productions and Hank Williams Jr.\n(c)2002 Curb R
EXTD=ecords Inc/Warner Music Germany\nupc 71518-78725-23
EXTT0=
EXTT1=
EXTT2=
EXTT3=
EXTT4=
EXTT5=
EXTT6=
EXTT7=
EXTT8=
EXTT9=
EXTT10=
EXTT11=
EXTT12=
PLAYORDER=
